# xmcd
# 
# Track frame offsets:
#     150
#     11669
#     22267
#     33735
#     46560
#     58708
#     70882
#     83183
#     95168
#     108260
#     122219
#     134810
#     146794
#     160220
#     173859
#     182331
#     194676
#     205072
#     217225
#     227707
#     237720
#     249189
# 
# Disc length: 3457
# 
# Revision: 1
# Processed by: cddbd v1.5.2PL0 Copyright (c) Steve Scherf et al.
# Submitted via: fre:ac v1.0.17
# 
DISCID=4e0d7f16
DTITLE=Glen Campbell - Hey, Little One - A New Place In The Sun
DYEAR=2009
DGENRE=Country
TTITLE0=Hey, Little One
TTITLE1=Elusive Butterfly
TTITLE2=That's All That Matters
TTITLE3=Break My Mind
TTITLE4=Take Me Back
TTITLE5=I Don't Believe You (She Acts Like We Never Have Met)
TTITLE6=I Wanna Live
TTITLE7=It's Over
TTITLE8=Turn Around And Look At Me
TTITLE9=Woman, Woman
TTITLE10=The Impossible Dream (The Quest)
TTITLE11=Freeborn Man
TTITLE12=The Last Letter
TTITLE13=She Called Me Baby
TTITLE14=Visions Of Sugarplums
TTITLE15=I Have No One To Love Me Anymore
TTITLE16=The Legend Of Bonnie And Clyde
TTITLE17=A Place In The Sun
TTITLE18=Have I Stayed Away Too Long?
TTITLE19=Within My Memory
TTITLE20=The Twelfth Of Never
TTITLE21=Sunny Day Girl
EXTD=
EXTT0=
EXTT1=
EXTT2=
EXTT3=
EXTT4=
EXTT5=
EXTT6=
EXTT7=
EXTT8=
EXTT9=
EXTT10=
EXTT11=
EXTT12=
EXTT13=
EXTT14=
EXTT15=
EXTT16=
EXTT17=
EXTT18=
EXTT19=
EXTT20=
EXTT21=
PLAYORDER=
